<svg version="1.1" id="Layer_1" xmlns="http://www.w3.org/2000/svg" xmlns:xlink="http://www.w3.org/1999/xlink" x="0px" y="0px"
	 width="100%" viewBox="0 0 512 512" enable-background="new 0 0 512 512" xml:space="preserve">
<path fill="#FFFFFF" opacity="1.000000" stroke="none" 
	d="
M240.062927,512.613647 
	C161.699570,513.000000 83.399101,512.977478 5.098800,513.080627 
	C1.891862,513.084839 0.891287,512.729248 0.893919,509.101959 
	C1.015927,341.006012 1.017939,172.909958 0.885912,4.814021 
	C0.882928,1.014494 2.149847,0.931172 5.182765,0.933754 
	C100.142685,1.014580 195.102692,1.000000 290.531342,1.000000 
	C291.010010,3.605296 288.688629,4.001839 287.091309,4.938502 
	C254.904984,23.812290 222.727051,42.701149 190.629929,61.725300 
	C180.316879,67.837898 170.630005,74.963318 160.929977,82.013618 
	C155.421524,86.017334 154.682098,88.589798 156.866592,94.909912 
	C170.742050,135.054092 184.677917,175.177567 198.923050,215.192261 
	C201.065384,221.210129 202.416809,227.198364 202.389557,233.689285 
	C202.220978,273.839905 202.205429,313.992157 202.414276,354.142395 
	C202.444901,360.029205 200.580780,363.491943 195.349396,366.443420 
	C167.786194,381.994263 140.581985,398.184296 112.906319,413.532959 
	C100.971336,420.152008 102.734161,427.607086 112.708496,433.576721 
	C154.015884,458.299103 194.974701,483.601898 236.091232,508.642822 
	C237.646667,509.590088 239.323532,510.422455 240.062927,512.613647 
z"/>
<path fill="#FFFFFF" opacity="1.000000" stroke="none" 
	d="
M298.899841,1.395834 
	C368.969055,1.000000 438.938171,1.025577 508.907074,0.918231 
	C512.126343,0.913291 513.108093,1.288407 513.105469,4.903740 
	C512.984192,172.996002 512.982117,341.088379 513.113586,509.180634 
	C513.116516,512.968933 511.866699,513.070251 508.822754,513.067322 
	C422.527679,512.983704 336.232483,513.000000 249.468658,513.000000 
	C248.834152,509.674835 251.813110,509.135315 253.772675,507.940857 
	C279.525177,492.243286 305.328217,476.628601 331.127228,461.007355 
	C353.932831,447.198608 376.700073,433.326447 399.545746,419.583740 
	C401.545532,418.380859 403.514252,417.121582 405.366760,415.702362 
	C411.099915,411.310059 411.163818,405.527344 405.240601,401.277679 
	C399.557556,397.200317 393.441498,393.757416 387.518829,390.031555 
	C380.890106,385.861511 374.363037,381.513214 367.620209,377.548920 
	C363.166962,374.930756 361.550171,371.589844 361.574280,366.540497 
	C361.716736,336.712311 361.645752,306.883026 361.645020,277.054138 
	C361.644135,239.726349 361.615326,202.398483 361.685516,165.070831 
	C361.693512,160.819061 360.918884,156.872696 359.365326,152.922119 
	C341.193634,106.713409 322.888611,60.556393 305.128082,14.187516 
	C303.443787,9.790143 300.808533,5.972049 298.899841,1.395834 
z"/>
<path fill="#000000" opacity="1.000000" stroke="none" 
	d="
M298.555847,1.000000 
	C306.387177,8.586905 308.068207,18.954304 311.844513,28.206898 
	C322.307007,53.841557 332.051880,79.768356 342.173798,105.542992 
	C348.959045,122.820999 355.940247,140.022110 362.711121,157.305664 
	C363.283722,158.767426 362.990448,160.593735 362.990723,162.250702 
	C363.001556,230.875061 363.030670,299.499481 362.917175,368.123657 
	C362.910950,371.894867 364.126221,373.977234 367.339478,375.910065 
	C380.558624,383.861481 393.637177,392.050476 406.670410,400.305298 
	C411.852814,403.587708 413.839447,412.439331 406.188232,416.997803 
	C395.563690,423.327789 384.990875,429.745117 374.427826,436.177460 
	C354.654633,448.218201 334.920288,460.322784 315.140015,472.351868 
	C295.635864,484.213074 276.095215,496.014221 256.569702,507.840302 
	C254.104965,509.333099 251.634827,510.816956 249.083588,512.652466 
	C246.299988,513.000000 243.599976,513.000000 240.449982,513.000000 
	C226.816269,503.868958 212.769241,496.127625 199.163757,487.675507 
	C180.308228,475.961975 161.317795,464.465485 142.379532,452.885193 
	C130.989136,445.920197 119.526245,439.071289 108.213417,431.982727 
	C100.576668,427.197571 101.045967,419.091125 108.852058,414.583740 
	C134.473267,399.789612 160.029083,384.882172 185.654556,370.095428 
	C187.876373,368.813324 190.124527,367.137756 192.387527,366.430084 
	C200.338287,363.943756 201.245239,358.617554 201.176193,351.169800 
	C200.803970,311.008270 200.891525,270.840942 201.086243,230.676865 
	C201.128067,222.046585 197.079407,214.807602 194.466034,207.104431 
	C183.810547,175.696396 172.855820,144.389740 161.965530,113.061638 
	C159.754883,106.702263 157.409470,100.387543 155.007935,94.097389 
	C153.031784,88.921478 154.562851,84.760857 158.818802,81.747711 
	C174.467621,70.668587 190.356979,59.969936 207.013260,50.407501 
	C225.136383,40.002941 242.965149,29.086966 261.004211,18.534044 
	C270.850891,12.773705 280.867218,7.303354 290.903503,1.351110 
	C293.370575,1.000000 295.741119,1.000000 298.555847,1.000000 
z"/>
<path fill="#FFFFFF" opacity="1.000000" stroke="none" 
	d="
M330.704468,126.272995 
	C335.201385,137.130081 339.487091,147.657883 343.648926,158.234436 
	C344.594910,160.638428 345.050873,163.163742 345.048737,165.849091 
	C344.988190,241.993103 344.988525,318.137207 345.043030,394.281250 
	C345.045135,397.256226 344.600800,399.234558 341.656982,401.045959 
	C319.733612,414.536224 297.977783,428.298920 276.177002,441.988251 
	C268.719849,446.670837 261.284454,451.388092 253.000000,456.619385 
	C253.000000,454.177612 253.000000,452.450439 253.000000,450.723267 
	C253.000000,376.411987 252.940018,302.100586 253.080063,227.789566 
	C253.096542,219.042923 249.306503,211.476410 246.733551,203.605576 
	C237.222900,174.511948 227.113281,145.614227 217.247849,116.636414 
	C212.807953,103.595062 208.441513,90.528625 203.969284,77.498436 
	C203.229965,75.344345 202.840805,74.189438 205.552460,72.639732 
	C219.509689,64.663200 233.202774,56.225693 247.023056,48.007977 
	C260.423889,40.039665 273.924896,32.237267 287.230560,24.114079 
	C289.261810,22.873985 290.186676,22.914949 290.947449,24.844469 
	C303.984741,57.912262 316.979889,90.996674 329.972198,124.082191 
	C330.206512,124.678909 330.292969,125.333702 330.704468,126.272995 
z"/>
<path fill="#FFFFFF" opacity="1.000000" stroke="none" 
	d="
M208.984009,148.142822 
	C215.992233,169.357407 222.535706,190.332428 230.161652,210.906189 
	C234.069839,221.449905 235.116714,231.941467 235.089554,242.978561 
	C234.914490,314.104889 235.000000,385.231873 235.000000,456.882629 
	C229.908951,454.070343 225.053696,451.427094 220.241272,448.708008 
	C218.652298,447.810211 218.999908,446.159546 218.999954,444.688782 
	C219.000122,439.858124 219.000000,435.027496 219.000000,430.196838 
	C219.000000,367.231720 218.771790,304.265106 219.184097,241.302704 
	C219.271149,228.010071 217.214844,215.581039 212.733902,203.153580 
	C202.523315,174.835419 193.074173,146.242447 182.830765,117.936592 
	C180.107910,110.412498 178.059601,102.627556 174.660538,95.363457 
	C174.031677,94.019524 173.932159,93.224655 175.073685,92.481689 
	C179.091705,89.866577 183.151047,87.314972 187.357452,84.635612 
	C193.997910,104.486206 200.485703,123.913834 207.013046,143.328156 
	C207.523132,144.845337 208.309509,146.269608 208.984009,148.142822 
z"/>
<path fill="#FFFFFF" opacity="1.000000" stroke="none" 
	d="
M210.045166,464.002930 
	C219.909027,469.469391 229.264771,475.150146 238.947296,480.204987 
	C242.564240,482.093170 247.104584,481.947266 250.742050,479.669769 
	C280.603638,460.972931 310.366272,442.118134 340.197998,423.373444 
	C346.454041,419.442444 352.889679,415.798248 359.205048,411.960175 
	C361.757172,410.409180 363.056824,408.086273 363.010620,405.030853 
	C362.962799,401.866516 362.999969,398.700897 362.999969,394.765045 
	C370.587738,399.433167 377.788757,403.863312 385.488098,408.600067 
	C373.713715,415.740326 362.312073,422.647797 350.917084,429.566315 
	C331.402008,441.414948 311.905090,453.293640 292.373840,465.115540 
	C277.385712,474.187592 262.348694,483.178894 247.354675,492.241241 
	C245.357712,493.448181 244.083710,493.962860 241.487228,492.340179 
	C215.036087,475.809448 188.389694,459.590515 161.765289,443.337860 
	C152.168106,437.479370 142.474808,431.778503 132.850021,425.964905 
	C131.882050,425.380249 131.085205,424.512299 129.895966,423.512726 
	C153.502808,409.822632 176.859406,396.277679 200.296844,382.685852 
	C201.434937,384.715851 200.971054,386.386444 200.974289,387.969208 
	C201.013824,407.297089 201.286346,426.631348 200.861267,445.949982 
	C200.687424,453.850677 201.175568,460.658569 210.045166,464.002930 
z"/>
<path fill="#000000" opacity="1.000000" stroke="none" 
	d="
M310.983276,93.125832 
	C318.721466,114.893906 326.490570,136.240997 334.134003,157.632980 
	C336.357422,163.855804 335.305115,167.154114 330.021057,170.431137 
	C311.042389,182.201187 292.022919,193.906525 272.943512,205.512375 
	C267.436951,208.861984 262.210632,207.282303 259.697418,201.126221 
	C254.558716,188.538895 249.829010,175.782700 245.037888,163.055756 
	C236.527145,140.448105 228.058197,117.824516 219.651611,95.177940 
	C216.581314,86.906853 214.878860,82.818954 226.075424,76.462379 
	C244.223541,66.159210 262.413086,55.926315 280.689758,45.853580 
	C287.921356,41.868053 292.822021,43.692097 295.658813,51.285625 
	C300.250610,63.576904 304.550934,75.976944 309.008636,88.318649 
	C309.552887,89.825546 310.308594,91.256058 310.983276,93.125832 
z"/>
<path fill="#000000" opacity="1.000000" stroke="none" 
	d="
M282.155334,237.378616 
	C277.097839,240.229721 272.084656,239.241104 269.707611,235.272141 
	C266.659454,230.182739 267.573303,225.280823 272.581268,222.129166 
	C282.370483,215.968521 292.279022,209.996582 302.167664,203.995117 
	C309.032990,199.828522 315.966309,195.773941 322.833527,191.610367 
	C327.246277,188.934952 332.829773,189.482941 334.988129,192.911331 
	C338.258209,198.105576 337.196533,204.014099 332.357330,206.944260 
	C315.728333,217.013229 299.074341,227.041016 282.155334,237.378616 
z"/>
<path fill="#FFFFFF" opacity="1.000000" stroke="none" 
	d="
M240.241669,101.617325 
	C239.936142,100.628777 239.941116,99.949821 239.725830,99.349892 
	C236.762344,91.090897 236.863602,91.290451 244.395081,87.132523 
	C254.655319,81.468132 264.797699,75.580841 274.857269,69.566071 
	C280.695496,66.075317 281.458740,66.069801 283.759521,72.437576 
	C289.905792,89.448219 295.896973,106.514839 302.015137,123.535713 
	C305.805725,134.081131 309.677338,144.597977 313.600800,155.094666 
	C314.502411,157.506729 314.515533,158.574127 311.712982,160.212875 
	C298.942139,167.680267 286.448822,175.630325 273.983490,183.606445 
	C270.859985,185.605057 270.782593,182.954605 270.257446,181.545425 
	C260.643616,155.747330 251.123154,129.914474 241.565720,104.095337 
	C241.289566,103.349312 240.825974,102.672661 240.241669,101.617325 
z"/>
</svg>